<svg viewBox="0 0 31.75 31.75" xmlns="http://www.w3.org/2000/svg">
  <path d="M15.272 0c-.345-.006-.742.222-1.188.685-.602.624-.605.71-.055 1.28 1.051 1.091.722 1.395-1.51 1.395-1.156 0-3.127.297-4.38.66C-.048 6.393-2.486 15.844 2.793 24.738c1.406 2.37 4.686 5.615 6.543 6.473 1.366.632 3.145.712 4.928.221.877-.241 1.95-.227 3.633.05 2.064.34 2.604.318 3.964-.17 2.56-.854 4.33-3.056 5.498-4.523 3.883-4.778 5.46-11.95 3.633-16.53-1.65-4.138-5.794-6.83-10.882-7.067a370.11 370.11 0 0 1-3.045-.15c-.124-.009-.407-.693-.629-1.52C16.166.516 15.776.008 15.272 0Z"/>
</svg>
