<svg viewBox="0 0 210 297" xmlns="http://www.w3.org/2000/svg">
  <path d="M104.63 0S15.479 107.806 15.479 107.583c0-.223 33.5 40.805 33.5 40.805l-33.047 40.919L104.622 297l89.894-107.694s-33.796-40.9-33.907-40.9c-.118 0 24.635-29.706 24.863-29.484.059.066-3.947-5.193-10.025-12.242-6.331-7.327-13.941-14.158-18.325-22.257-5.373-11.296 2.585-19.669 2.585-19.669l-3.147-2.702-33.386 40.473-18.552-21.695-42.715 51.372-20.57-24.62s63.404-75.884 63.293-75.656c-.118.223 21.917 26.643 21.917 26.643l3.71-3.596S118.906 42.53 115.64 31.587c-2.294-7.698 3.147-15.061 3.147-15.061zm33.17 99.057c3.828-.884 7.42 3.48 7.42 3.48l14.45 16.385s-12.071 13.263-12.145 13.263c-.08 0-20.774-25.248-20.774-25.248s5.88-6.68 11.05-7.88zm-33.17 13.612s30.532 35.08 30.378 35.08c-.155 0-30.228 36.277-30.382 36.277-.155 0-29.013-36.28-29.013-36.28zm43.435 51.553 20.465 24.442-63.9 76.267-62.931-76.267 19.96-23.823 42.97 50.7z"/>
</svg>
