<svg xmlns="http://www.w3.org/2000/svg" fill-rule="evenodd" clip-rule="evenodd" viewBox="0 0 24 24">
  <path d="M12 0c6.623 0 12 5.377 12 12s-5.377 12-12 12S0 18.623 0 12 5.377 0 12 0m2.557 16H9.442c.546 2.46 1.441 4.114 2.558 5.744 1.194-1.741 2.041-3.41 2.557-5.744M7.4 16H2.833c1.236 2.825 3.704 4.972 6.755 5.716A17.556 17.556 0 0 1 7.4 16m13.767 0H16.6a17.617 17.617 0 0 1-2.175 5.694c3.012-.763 5.517-2.895 6.742-5.694M7.162 10H2.2a10.088 10.088 0 0 0 0 4h4.915a20.028 20.028 0 0 1 .047-4m7.661 0H9.176a18.016 18.016 0 0 0-.053 4h5.753a18.017 18.017 0 0 0-.053-4m6.977 0h-4.963c.148 1.328.166 2.671.048 4H21.8c.26-1.285.273-2.648 0-4M9.644 2.271C6.567 3.003 4.077 5.157 2.833 8h4.653a20.424 20.424 0 0 1 2.158-5.729m2.355-.048C10.91 3.993 10.089 5.676 9.536 8h4.927c-.534-2.246-1.337-3.948-2.464-5.777m2.368.069A20.45 20.45 0 0 1 16.513 8h4.654c-1.232-2.816-3.762-4.958-6.8-5.708"/>
</svg>
