<svg xmlns="http://www.w3.org/2000/svg" width="24" height="24" viewBox="0 0 24 24">
  <path d="M18.513 7.119A6.306 6.306 0 0 0 20 3.083V0H4v3.083c0 1.459.528 2.892 1.487 4.035l3.087 3.68c.566.677.57 1.625.009 2.306l-3.13 3.794A6.303 6.303 0 0 0 4 20.893V24h16v-3.107c0-1.44-.517-2.858-1.453-3.994l-3.13-3.794a1.782 1.782 0 0 1 .009-2.306l3.087-3.68zM18 2.999c0 1.101-.363 2.05-1.02 2.834L16.002 7H7.998L7.02 5.833C6.36 5.048 6 4.097 6 2.999h12zm-.996 15.172c.652.791.996 1.725.996 2.829h-1.061C15 19 12 19 12 19s-3 0-4.939 2H6c0-1.104.344-2.039.996-2.829l3.129-3.793c.342-.415.571-.886.711-1.377H11v1h2v-1h.163c.141.491.369.962.711 1.376l3.13 3.794zM11 17h2v1h-2v-1zm0-2h2v1h-2v-1z"/>
</svg>
