<?xml version="1.0" encoding="UTF-8" standalone="no"?>
<svg
  viewBox="0 0 31.75 31.75"
  version="1.1"
  xmlns="http://www.w3.org/2000/svg"
  xmlns:svg="http://www.w3.org/2000/svg">
  <path
    d="M 15.271665,1.0965153e-4 C 14.927096,-0.00573937 14.530006,0.22240633 14.083503,0.68540994 13.482497,1.3086309 13.479036,1.3956177 14.028584,1.9654729 c 1.051765,1.0906291 0.722765,1.3942795 -1.510249,1.3942795 -1.154907,0 -3.1259933,0.2969413 -4.3793506,0.6602283 C -0.04756178,6.3928613 -2.4864248,15.84422 2.7926289,24.738475 c 1.4061616,2.369129 4.6867849,5.614194 6.5434222,6.472744 1.3661249,0.631727 3.1453149,0.711346 4.9277899,0.220772 0.877243,-0.241428 1.949366,-0.226509 3.633504,0.05084 2.063746,0.339867 2.603382,0.316913 3.963754,-0.17063 C 24.421693,30.458186 26.191927,28.255832 27.35885,26.7895 31.242017,22.010978 32.8183,14.839203 30.992353,10.259412 29.342245,6.1206482 25.198106,3.4293981 20.110398,3.1919097 18.559033,3.1194939 17.188346,3.0523721 17.064667,3.0428707 16.940982,3.0333729 16.658082,2.3485163 16.436077,1.5211419 16.166616,0.51690308 15.775264,0.00865825 15.271665,1.0965153e-4 Z" />
</svg>
