<?xml version="1.0" encoding="UTF-8" standalone="no"?>
<svg
  viewBox="0 0 24 24"
  version="1.1"
  xmlns="http://www.w3.org/2000/svg"
  xmlns:svg="http://www.w3.org/2000/svg">
  <path
    d="M 23.288372,19.485444 15.685,11.979 23.18142,4.4076159 a 1.0049875,1.0049875 89.857474 0 0 -0.0035,-1.4177227 L 20.895107,0.70710678 a 0.99360798,0.99360798 179.8163 0 0 -1.409665,0.00452 L 11.976,8.318 4.3776737,0.81751016 a 1.0065007,1.0065007 179.81437 0 0 -1.4187805,0.004597 L 0.70710678,3.0738932 a 0.99512095,0.99512095 89.859884 0 0 0.00345,1.4107467 L 8.321,12.021 0.81751184,19.622328 a 1.0064984,1.0064984 89.814439 0 0 0.004595,1.418779 l 2.25178642,2.251786 a 0.99511919,0.99511919 179.85983 0 0 1.4107454,-0.0035 l 7.5305204,-7.604573 a 0.00403837,0.00403837 179.71736 0 1 0.0057,-2.8e-5 l 7.571516,7.496578 a 1.0049857,1.0049857 179.85753 0 0 1.417722,-0.0035 l 2.282786,-2.282786 a 0.99360566,0.99360566 89.816229 0 0 -0.0045,-1.409663 z"
    />
</svg>
