<?xml version="1.0" encoding="UTF-8" standalone="no"?>
<svg
   id="Layer_1"
   style="enable-background:new 0 0 64 64;"
   version="1.1"
   viewBox="0 0 64 64"
   xml:space="preserve"
   xmlns="http://www.w3.org/2000/svg"
   xmlns:svg="http://www.w3.org/2000/svg"><defs
     id="defs13" /><style
     type="text/css"
     id="style2">
	.st0{fill:#134563;}
</style><g
     id="g8"><g
       id="Navicon"
       transform="translate(330,232)"><path
         id="Fill-19"
         style="fill:#000000"
         class="st0"
         d="m 8.1992188,14.116564 v 4.067653 a 1.1165644,1.1165644 45 0 0 1.1165644,1.116564 H 54.582655 a 1.1165644,1.1165644 135 0 0 1.116564,-1.116564 V 14.116564 A 1.1165644,1.1165644 45 0 0 54.582655,13 L 9.3157832,13 a 1.1165644,1.1165644 135 0 0 -1.1165644,1.116564 z m 0,15.800781 v 4.16531 a 1.1165644,1.1165644 45 0 0 1.1165644,1.116564 l 45.2668718,0 a 1.1165644,1.1165644 135 0 0 1.116564,-1.116564 v -4.16531 a 1.1165644,1.1165644 45 0 0 -1.116564,-1.116564 l -45.2668718,0 a 1.1165644,1.1165644 135 0 0 -1.1165644,1.116564 z m 0,15.898438 v 4.067653 A 1.1165644,1.1165644 45 0 0 9.3157832,51 l 45.2668718,0 a 1.1165644,1.1165644 135 0 0 1.116564,-1.116564 V 45.815783 A 1.1165644,1.1165644 45 0 0 54.582655,44.699219 H 9.3157832 a 1.1165644,1.1165644 135 0 0 -1.1165644,1.116564 z"
         transform="translate(-330,-232)" /></g></g></svg>
