<?xml version="1.0" encoding="UTF-8" standalone="no"?>
<svg
   height="128px"
   id="Layer_1"
   style="enable-background:new 0 0 128 128;"
   version="1.1"
   viewBox="0 0 128 128"
   width="128px"
   xml:space="preserve"
   xmlns="http://www.w3.org/2000/svg"
   xmlns:svg="http://www.w3.org/2000/svg"><defs
     id="defs7" /><path
     d="m 117.488,78.948 -10.427,-7.741 c 0.62369,-5.020556 0.61024,-10.133373 0,-14.398 l 10.441,-7.752 c 2.478,-1.43 3.326,-4.597 1.896,-7.074 l -8.631,-14.949 c -1.43,-2.477 -4.598,-3.325 -7.074,-1.895 L 91.757,30.306 C 87.638881,27.206746 83.776487,24.879867 79.294,23.111 L 77.801,10.189 C 77.802,7.329 75.484,5.01 72.623,5.01 H 55.365 c -2.86,0 -5.178,2.318 -5.178,5.179 l -1.493,12.922 c -4.57469,1.907798 -9.116979,4.55361 -12.464,7.197 l -11.92,-5.16 c -2.477,-1.43 -5.645,-0.581 -7.075,1.896 L 8.602,41.99 c -1.431,2.479 -0.581,5.646 1.895,7.076 l 10.429,7.742 c -0.601251,5.017989 -0.625605,10.138105 -0.002,14.4 L 10.498,78.95 C 8.02,80.38 7.172,83.547 8.603,86.023 l 8.63,14.949 c 1.43,2.478 4.598,3.326 7.074,1.896 l 11.918,-5.156 c 4.142244,2.50595 8.47501,5.46528 12.462,7.194 l 1.492,12.904 c 0,2.859 2.318,5.179 5.179,5.179 l 17.261,10e-4 c 2.859,-10e-4 5.179,-2.318 5.179,-5.18 l 1.493,-12.906 c 4.552033,-1.68075 8.704453,-4.20415 12.469,-7.197 l 11.92,5.159 c 2.478,1.431 5.645,0.581 7.074,-1.896 l 8.631,-14.948 c 1.428,-2.477 0.58,-5.644 -1.897,-7.074 z M 64,82.013 c -9.948,0 -18.013,-8.064 -18.013,-18.013 0,-9.949 8.065,-18.014 18.013,-18.014 9.948,0 18.014,8.066 18.014,18.014 0,9.948 -8.066,18.013 -18.014,18.013 z"
     style="fill:#2f3435"
     id="path2" /></svg>
